<svg width="17" height="17" viewBox="0 0 17 17" fill="none" xmlns="http://www.w3.org/2000/svg">
<circle cx="8.41665" cy="8.41665" r="8.41665" fill="#517DA3"/>
<path d="M4.95993 12.8423V11.5263C6.07993 10.7796 6.97593 10.1216 7.64793 9.55228C8.31993 8.97362 8.80059 8.44162 9.08993 7.95629C9.38859 7.47095 9.53793 6.99028 9.53793 6.51428C9.53793 6.08495 9.40726 5.73495 9.14593 5.46429C8.88459 5.18428 8.51593 5.04428 8.03993 5.04428C7.51726 5.04428 7.10659 5.22162 6.80793 5.57628C6.51859 5.93095 6.35993 6.43495 6.33193 7.08828L4.66593 6.45828C4.72193 5.51562 5.06259 4.78295 5.68793 4.26028C6.32259 3.72828 7.14393 3.46228 8.15193 3.46228C8.89859 3.46228 9.51459 3.60228 9.99993 3.88228C10.4946 4.15295 10.8633 4.51229 11.1059 4.96028C11.3579 5.40828 11.4839 5.88895 11.4839 6.40229C11.4839 7.28895 11.1479 8.11962 10.4759 8.89429C9.81326 9.65962 8.78193 10.4716 7.38193 11.3303V11.3443C7.58726 11.335 7.85793 11.3256 8.19393 11.3163C8.53926 11.2976 8.83326 11.2883 9.07593 11.2883H11.6239V12.8423H4.95993Z" fill="white"/>
</svg>
