<svg width="25" height="24" viewBox="0 0 25 24" fill="none" xmlns="http://www.w3.org/2000/svg">
<path d="M19.5 21H5.5C5.23478 21 4.98043 20.8947 4.79289 20.7071C4.60536 20.5196 4.5 20.2652 4.5 20V11H1.5L11.827 1.61201C12.0111 1.44449 12.2511 1.35165 12.5 1.35165C12.7489 1.35165 12.9889 1.44449 13.173 1.61201L23.5 11H20.5V20C20.5 20.2652 20.3946 20.5196 20.2071 20.7071C20.0196 20.8947 19.7652 21 19.5 21ZM6.5 19H18.5V9.15701L12.5 3.70301L6.5 9.15701V19ZM8.5 15H16.5V17H8.5V15Z" fill="#517DA3"/>
</svg>
