<svg width="23" height="26" viewBox="0 0 23 26" fill="none" xmlns="http://www.w3.org/2000/svg">
<path d="M11.4993 19.701C16.3925 19.701 20.6723 21.7695 23 24.856L20.5387 26C18.644 23.7935 15.3035 22.3277 11.4993 22.3277C7.69517 22.3277 4.35467 23.7935 2.45994 26L0 24.8547C2.32766 21.7682 6.60617 19.701 11.4993 19.701ZM11.4993 0C13.2712 0 14.9706 0.691877 16.2235 1.92342C17.4764 3.15497 18.1803 4.82531 18.1803 6.56698V10.5072C18.1802 12.1994 17.5155 13.8263 16.3248 15.0486C15.1341 16.2709 13.5093 16.9941 11.7893 17.0676L11.4993 17.0742C9.72742 17.0742 8.02808 16.3823 6.77515 15.1507C5.52222 13.9192 4.81833 12.2488 4.81833 10.5072V6.56698C4.81843 4.87472 5.48315 3.24782 6.67386 2.02555C7.86457 0.803282 9.48935 0.0800114 11.2094 0.00656713L11.4993 0ZM11.4993 2.62679C10.4769 2.62674 9.49301 3.01073 8.74908 3.70021C8.00516 4.38969 7.5574 5.33253 7.49741 6.33583L7.49073 6.56698V10.5072C7.48973 11.5328 7.89563 12.5184 8.62219 13.2546C9.34875 13.9907 10.3387 14.4194 11.3817 14.4495C12.4247 14.4796 13.4385 14.1087 14.2078 13.4157C14.977 12.7228 15.441 11.7623 15.5012 10.7383L15.5079 10.5072V6.56698C15.5079 5.52198 15.0856 4.51978 14.3338 3.78085C13.5821 3.04192 12.5625 2.62679 11.4993 2.62679Z" fill="#9EB7CD"/>
</svg>
